      <svg viewBox="185.33334350585938 173.66668701171875 110 119.33331298828125" xmlns="http://www.w3.org/2000/svg">
        <path d="M 295.3333435058594 293 L 295.3333435058594 293 L 295.3333435058594 292.3333435058594 L 295.3333435058594 291.66668701171875 L 294 289.66668701171875 L 292 288.3333435058594 L 288 286.3333435058594 L 283.3333435058594 284.3333435058594 L 277.3333435058594 281 L 270 277 L 264 273 L 256.66668701171875 269 L 249.33334350585938 265 L 242 259.66668701171875 L 234.6666717529297 254.33334350585938 L 227.33334350585938 249 L 220 243.66668701171875 L 212.6666717529297 237.66668701171875 L 205.33334350585938 231 L 199.33334350585938 225.66668701171875 L 194 219.66668701171875 L 190 213.66668701171875 L 186 207.66668701171875 L 185.33334350585938 205.66668701171875 L 185.33334350585938 204.33334350585938 L 185.33334350585938 203 L 185.33334350585938 201 L 185.33334350585938 199 L 185.33334350585938 196.33334350585938 L 185.33334350585938 194.33334350585938 L 185.33334350585938 192.33334350585938 L 185.33334350585938 190.33334350585938 L 186.6666717529297 187 L 190.6666717529297 184.33334350585938 L 194 181.66668701171875 L 198.6666717529297 179.66668701171875 L 201.33334350585938 178.33334350585938 L 204.6666717529297 177 L 209.33334350585938 175.66668701171875 L 211.33334350585938 175 L 214 174.33334350585938 L 215.33334350585938 173.66668701171875 L 216 173.66668701171875 L 216 174.33334350585938 L 216 175.66668701171875 L 216.6666717529297 177 L 216.6666717529297 177.66668701171875 L 216.6666717529297 178.33334350585938 L 217.33334350585938 179.66668701171875 L 218 181 L 218 182.33334350585938 L 218 183.66668701171875 L 218.6666717529297 185.66668701171875 L 218.6666717529297 188.33334350585938 L 220.6666717529297 190.33334350585938 L 221.33334350585938 192.33334350585938 L 222 195.66668701171875 L 222.6666717529297 199 L 223.33334350585938 201 L 223.33334350585938 203.66668701171875 L 224 206.33334350585938 L 225.33334350585938 213.66668701171875 L 226 219 L 226.6666717529297 222.33334350585938 L 227.33334350585938 225 L 228 227.66668701171875 L 228 229.66668701171875 L 228 231 L 228 232.33334350585938 L 228 233 L 228 233.66668701171875 L 228 234.33334350585938 L 228 235.66668701171875 L 228 237 L 228 238.33334350585938 L 228 239.66668701171875 L 228.6666717529297 241.66668701171875 L 230 243 L 230.6666717529297 245 L 231.33334350585938 248.33334350585938 L 232 249.66668701171875 L 233.33334350585938 251.66668701171875 L 234 253 L 234.6666717529297 254.33334350585938 L 235.33334350585938 255.66668701171875 L 236 256.3333435058594 " stroke="black" stroke-width="2" fill="none"/>
      </svg>
    